<svg width="262" height="30" viewBox="0 0 262 30" fill="none" xmlns="http://www.w3.org/2000/svg">
<path d="M251.081 8.88C253.988 8.88 256.401 9.84001 258.321 11.76C260.268 13.68 261.241 16.1467 261.241 19.16C261.241 22.2 260.281 24.6533 258.361 26.52C256.468 28.3867 254.041 29.32 251.081 29.32C248.148 29.32 245.721 28.3867 243.801 26.52C241.881 24.6267 240.921 22.1733 240.921 19.16C240.921 16.12 241.868 13.6533 243.761 11.76C245.655 9.84001 248.095 8.88 251.081 8.88ZM256.441 13.52C255.055 12.0533 253.268 11.32 251.081 11.32C248.895 11.32 247.095 12.0533 245.681 13.52C244.295 14.9867 243.601 16.8667 243.601 19.16C243.601 21.4533 244.295 23.3067 245.681 24.72C247.095 26.1067 248.895 26.8 251.081 26.8C253.321 26.8 255.121 26.1067 256.481 24.72C257.868 23.3067 258.561 21.4533 258.561 19.16C258.561 16.8667 257.855 14.9867 256.441 13.52Z" fill="#0A0A0A"/>
<path d="M237.175 9.16V29H234.495V9.16H237.175ZM233.975 3.03999C233.975 3.84 234.295 4.39999 234.935 4.71999C235.575 5.03999 236.202 5.03999 236.815 4.71999C237.455 4.39999 237.775 3.84 237.775 3.03999C237.775 2.24 237.455 1.68 236.815 1.35999C236.175 1.04 235.535 1.04 234.895 1.35999C234.282 1.68 233.975 2.24 233.975 3.03999Z" fill="#0A0A0A"/>
<path d="M226.997 29.16C226.357 28.84 226.037 28.28 226.037 27.48C226.037 26.68 226.357 26.12 226.997 25.8C227.637 25.48 228.264 25.48 228.877 25.8C229.517 26.12 229.837 26.68 229.837 27.48C229.837 28.28 229.517 28.84 228.877 29.16C228.264 29.48 227.637 29.48 226.997 29.16Z" fill="#0A0A0A"/>
<path d="M223.111 21H208.591C208.751 22.0133 209.298 22.8533 210.231 23.52C211.165 24.16 212.405 24.48 213.951 24.48C216.165 24.48 217.871 23.96 219.071 22.92L222.311 26.52C220.338 28.4667 217.511 29.44 213.831 29.44C210.311 29.44 207.578 28.4933 205.631 26.6C203.711 24.7067 202.751 22.1467 202.751 18.92C202.751 15.88 203.698 13.4267 205.591 11.56C207.485 9.66667 210.031 8.72 213.231 8.72C216.725 8.72 219.391 9.78667 221.231 11.92C223.098 14.0533 223.725 17.08 223.111 21ZM208.591 16.8H217.951C217.898 15.7867 217.418 15.0133 216.511 14.48C215.605 13.92 214.511 13.64 213.231 13.64C212.085 13.64 211.098 13.92 210.271 14.48C209.445 15.04 208.885 15.8133 208.591 16.8Z" fill="#0A0A0A"/>
<path d="M189.005 14.04C187.539 14.04 186.365 14.52 185.485 15.48C184.605 16.4133 184.165 17.6267 184.165 19.12C184.165 20.5867 184.592 21.8 185.445 22.76C186.325 23.72 187.512 24.2 189.005 24.2C190.472 24.2 191.725 23.7867 192.765 22.96C193.805 22.1333 194.325 20.8533 194.325 19.12C194.325 17.5467 193.792 16.3067 192.725 15.4C191.659 14.4933 190.419 14.04 189.005 14.04ZM194.405 1.04001H200.205V29H195.045L194.685 26.48C193.192 28.4 191.005 29.36 188.125 29.36C185.219 29.36 182.859 28.4267 181.045 26.56C179.259 24.6667 178.365 22.1867 178.365 19.12C178.365 15.9733 179.272 13.48 181.085 11.64C182.899 9.77334 185.272 8.84001 188.205 8.84001C190.819 8.84001 192.885 9.77334 194.405 11.64V1.04001Z" fill="#0A0A0A"/>
<path d="M170.218 11.52L170.418 9.24001H175.818V29H170.618L170.298 26.52C169.685 27.48 168.792 28.2 167.618 28.68C166.472 29.16 165.338 29.4133 164.218 29.44C161.205 29.4667 158.752 28.56 156.858 26.72C154.965 24.8533 154.018 22.32 154.018 19.12C154.018 15.92 154.992 13.3867 156.938 11.52C158.912 9.65334 161.392 8.74668 164.378 8.80001C165.658 8.80001 166.818 9.04001 167.858 9.52001C168.925 10 169.712 10.6667 170.218 11.52ZM164.978 13.88C163.485 13.88 162.245 14.36 161.258 15.32C160.272 16.2533 159.778 17.52 159.778 19.12C159.778 20.72 160.272 21.9867 161.258 22.92C162.245 23.8533 163.485 24.32 164.978 24.32C166.525 24.32 167.778 23.8133 168.738 22.8C169.725 21.7867 170.218 20.6267 170.218 19.32C170.218 17.8 169.752 16.52 168.818 15.48C167.912 14.4133 166.632 13.88 164.978 13.88Z" fill="#0A0A0A"/>
<path d="M138.682 9.27999H144.042L144.482 11.44C145.736 9.67999 147.496 8.79999 149.762 8.79999C151.629 8.79999 153.242 9.39999 154.602 10.6L152.202 15.16C151.269 14.4933 150.216 14.16 149.042 14.16C147.736 14.16 146.642 14.5733 145.762 15.4C144.882 16.2 144.442 17.3067 144.442 18.72V29H138.682V9.27999Z" fill="#0A0A0A"/>
<path d="M134.83 4.48L130.95 8.36C129.217 6.70667 127.03 5.88 124.39 5.88C121.67 5.88 119.523 6.66667 117.95 8.24C116.377 9.78667 115.59 12.0533 115.59 15.04C115.59 16.1067 115.737 17.1467 116.03 18.16C116.35 19.1467 116.83 20.1067 117.47 21.04C118.137 21.9467 119.057 22.68 120.23 23.24C121.43 23.7733 122.817 24.04 124.39 24.04C126.63 24.04 128.617 23.3867 130.35 22.08V17.6H123.67V12.4H135.75V24.6C133.323 28.0667 129.523 29.8 124.35 29.8C121.763 29.8 119.483 29.3867 117.51 28.56C115.537 27.7067 113.977 26.5733 112.83 25.16C111.71 23.72 110.87 22.1467 110.31 20.44C109.75 18.7333 109.47 16.9333 109.47 15.04C109.47 13.0133 109.763 11.1333 110.35 9.4C110.963 7.64 111.857 6.06667 113.03 4.68C114.23 3.26667 115.803 2.16 117.75 1.36C119.697 0.560003 121.91 0.160004 124.39 0.160004C128.55 0.160004 132.03 1.6 134.83 4.48Z" fill="#0A0A0A"/>
<path d="M107.744 21H93.2241C93.3841 22.0133 93.9307 22.8533 94.8641 23.52C95.7974 24.16 97.0374 24.48 98.5841 24.48C100.797 24.48 102.504 23.96 103.704 22.92L106.944 26.52C104.971 28.4667 102.144 29.44 98.4641 29.44C94.9441 29.44 92.2107 28.4933 90.2641 26.6C88.3441 24.7067 87.3841 22.1467 87.3841 18.92C87.3841 15.88 88.3307 13.4267 90.2241 11.56C92.1174 9.66667 94.6641 8.72 97.8641 8.72C101.357 8.72 104.024 9.78667 105.864 11.92C107.731 14.0533 108.357 17.08 107.744 21ZM93.2241 16.8H102.584C102.531 15.7867 102.051 15.0133 101.144 14.48C100.237 13.92 99.1441 13.64 97.8641 13.64C96.7174 13.64 95.7307 13.92 94.9041 14.48C94.0774 15.04 93.5174 15.8133 93.2241 16.8Z" fill="#9935fd"/>
<path d="M72.6744 29H66.9944V18.4C66.9944 15.52 65.861 14.08 63.5944 14.08C62.501 14.08 61.6344 14.5067 60.9944 15.36C60.3544 16.2133 60.0344 17.24 60.0344 18.44V29H54.2744V9.24001H59.3144L59.7144 11.48C60.7277 9.69335 62.461 8.80001 64.9144 8.80001C67.661 8.80001 69.581 10.0267 70.6744 12.48C71.5544 11.1467 72.501 10.2 73.5144 9.64001C74.5277 9.05334 75.7677 8.76001 77.2344 8.76001C79.581 8.76001 81.4744 9.48001 82.9144 10.92C84.381 12.36 85.1144 14.7867 85.1144 18.2V29H79.3144V18.32C79.3144 15.5733 78.3144 14.2 76.3144 14.2C75.221 14.2 74.341 14.6133 73.6744 15.44C73.0077 16.24 72.6744 17.2267 72.6744 18.4V29Z" fill="#9935fd"/>
<path d="M45.0075 11.52L45.2075 9.24001H50.6075V29H45.4075L45.0875 26.52C44.4742 27.48 43.5808 28.2 42.4075 28.68C41.2608 29.16 40.1275 29.4133 39.0075 29.44C35.9942 29.4667 33.5408 28.56 31.6475 26.72C29.7542 24.8533 28.8075 22.32 28.8075 19.12C28.8075 15.92 29.7808 13.3867 31.7275 11.52C33.7008 9.65334 36.1808 8.74668 39.1675 8.80001C40.4475 8.80001 41.6075 9.04001 42.6475 9.52001C43.7142 10 44.5008 10.6667 45.0075 11.52ZM39.7675 13.88C38.2742 13.88 37.0342 14.36 36.0475 15.32C35.0608 16.2533 34.5675 17.52 34.5675 19.12C34.5675 20.72 35.0608 21.9867 36.0475 22.92C37.0342 23.8533 38.2742 24.32 39.7675 24.32C41.3142 24.32 42.5675 23.8133 43.5275 22.8C44.5142 21.7867 45.0075 20.6267 45.0075 19.32C45.0075 17.8 44.5408 16.52 43.6075 15.48C42.7008 14.4133 41.4208 13.88 39.7675 13.88Z" fill="#9935fd"/>
<path d="M25.88 4.48L22 8.36C20.2667 6.70667 18.08 5.88 15.44 5.88C12.72 5.88 10.5733 6.66667 8.99999 8.24C7.42666 9.78667 6.63999 12.0533 6.63999 15.04C6.63999 16.1067 6.78666 17.1467 7.07999 18.16C7.39999 19.1467 7.87999 20.1067 8.51999 21.04C9.18666 21.9467 10.1067 22.68 11.28 23.24C12.48 23.7733 13.8667 24.04 15.44 24.04C17.68 24.04 19.6667 23.3867 21.4 22.08V17.6H14.72V12.4H26.8V24.6C24.3733 28.0667 20.5733 29.8 15.4 29.8C12.8133 29.8 10.5333 29.3867 8.55999 28.56C6.58666 27.7067 5.02666 26.5733 3.87999 25.16C2.75999 23.72 1.91999 22.1467 1.35999 20.44C0.799989 18.7333 0.519989 16.9333 0.519989 15.04C0.519989 13.0133 0.813322 11.1333 1.39999 9.4C2.01332 7.64 2.90666 6.06667 4.07999 4.68C5.27999 3.26667 6.85332 2.16 8.79999 1.36C10.7467 0.560003 12.96 0.160004 15.44 0.160004C19.6 0.160004 23.08 1.6 25.88 4.48Z" fill="#9935fd"/>
</svg>
